<svg xmlns="http://www.w3.org/2000/svg" xmlns:xlink="http://www.w3.org/1999/xlink" version="1.1" viewBox="0 0 841.92 595.5"><defs><path d="M.624.03H.59a.218.218 0 0 0-.07.01.156.156 0 0 0-.083.063l-.03.044A.383.383 0 0 0 .22.03.285.285 0 0 0 .15.02C.048.02 0 .086 0 .215 0 .276.02.351.061.44L.095.397A.371.371 0 0 1 .071.331.488.488 0 0 1 .058.265c0-.06.04-.09.119-.09.076 0 .143.03.2.09a6.015 6.015 0 0 1-.02.243c.01.029.026.062.048.1a.077.077 0 0 0 .023-.03.095.095 0 0 0 .008-.033A12.587 12.587 0 0 0 .443.376C.443.344.445.315.449.29A.152.152 0 0 1 .473.226a.11.11 0 0 1 .05-.039A.232.232 0 0 1 .61.174h.015V.029Z" id="f"/><path d="M.464-.064.405-.162l-.103.063.057.089.105-.054M.678.14a.357.357 0 0 1-.08.007.559.559 0 0 1-.158-.02A1.32 1.32 0 0 1 .312.092a1.029 1.029 0 0 1-.069-.02A1.382 1.382 0 0 0 .104.036.52.52 0 0 0 .02.029h-.035v.145H0A1.717 1.717 0 0 1 .4.23a.244.244 0 0 1-.068.026.351.351 0 0 1-.188-.011.171.171 0 0 1-.042-.023.085.085 0 0 1-.026-.03L.031.204a.567.567 0 0 0 .04.086.258.258 0 0 0 .043.058.149.149 0 0 0 .11.043.283.283 0 0 0 .07-.01.655.655 0 0 0 .083-.028A1.006 1.006 0 0 1 .646.287l.087-.01L.678.14Z" id="g"/><path d="M.43.147v.004a.083.083 0 0 1-.006.03.147.147 0 0 1-.016.03.103.103 0 0 1-.022.024.042.042 0 0 1-.026.01A.03.03 0 0 1 .343.24.066.066 0 0 1 .32.212.037.037 0 0 1 .317.198C.317.19.32.183.325.178A.074.074 0 0 1 .35.161.332.332 0 0 1 .43.145v.001M.567.028H.465a.5.5 0 0 0-.187-.215.374.374 0 0 0-.085-.038.393.393 0 0 0-.07.024 1.13 1.13 0 0 0-.153.08l-.068.04.025.05c.06-.026.108-.043.147-.053a.387.387 0 0 1 .084-.015c.023 0 .045.005.066.014a.37.37 0 0 1 .142.118.182.182 0 0 0-.046.014.116.116 0 0 0-.072.11.31.31 0 0 0 .066.178c.01.013.02.022.033.03.012.006.025.01.039.01.01 0 .02-.003.03-.01A.117.117 0 0 0 .443.342.193.193 0 0 0 .466.305.348.348 0 0 0 .495.222.206.206 0 0 0 .499.185V.179L.498.174h.068V.028Z" id="h"/><path d="M.202.6.144.507.048.563A2.144 2.144 0 0 0 .013.507l-.1.064.057.092.093-.056a2.272 2.272 0 0 0 .038.056L.2.601M.198.26V.256a.554.554 0 0 0-.032-.16.19.19 0 0 0-.02-.04A.393.393 0 0 0 .02.03h-.035v.144h.046a.714.714 0 0 1 .06.004.035.035 0 0 1 .016.01c.004.004.006.01.006.016C.113.214.108.23.1.247a.739.739 0 0 1-.041.07c.003.042.019.08.047.115A.119.119 0 0 0 .14.404a.256.256 0 0 0 .05-.09A.153.153 0 0 0 .197.26Z" id="i"/><path d="M0 0Z" id="j"/><path d="M.44.45.418.458A.463.463 0 0 0 .38.305.46.46 0 0 0 .405.167.23.23 0 0 0 .4.112.132.132 0 0 0 .38.068.089.089 0 0 0 .348.04.1.1 0 0 0 .301.03H.235A.177.177 0 0 0 .18.043a.083.083 0 0 0-.038.03.1.1 0 0 0-.014.058c0 .031.006.068.019.109h.042L.181.197C.182.192.19.187.204.18c.017.01.033.022.047.036A.343.343 0 0 1 .293.27 1.562 1.562 0 0 1 .13.464a.154.154 0 0 1-.026.02.977.977 0 0 1-.005-.036.03.03 0 0 1-.01-.009.106.106 0 0 1-.01-.013A.658.658 0 0 0 0 .565a.423.423 0 0 0 .039.111.536.536 0 0 0 .17-.125.935.935 0 0 0 .134-.176.37.37 0 0 1 .015.084.189.189 0 0 1-.003.034.451.451 0 0 0-.037.035.07.07 0 0 0-.01.02.089.089 0 0 0 0 .047.286.286 0 0 0 .02.056.511.511 0 0 0 .039.074l.047-.02C.393.675.382.652.382.638c0-.01.036-.032.107-.065L.441.45M.328.162a.729.729 0 0 1-.007.04.061.061 0 0 1-.004.013.312.312 0 0 0-.06-.07.114.114 0 0 1 .059 0c.007.002.011.008.012.017Z" id="k"/><path d="M.217.16.167.07.05.138l.047.09.12-.068Z" id="l"/><path d="M.173.247V.235A.66.66 0 0 0 .13.021L.087.039A.588.588 0 0 1 .1.241a2.724 2.724 0 0 1-.024.125 20.185 20.185 0 0 0-.023.125.287.287 0 0 0-.004.04c0 .023.017.064.05.12L.126.624A1.222 1.222 0 0 1 .125.577C.125.56.127.539.132.515A9.461 9.461 0 0 1 .164.342a.743.743 0 0 0 .01-.095Z" id="m"/><path d="M.28.701V.697A1.137 1.137 0 0 1 .145.638.942.942 0 0 0 .068.606.161.161 0 0 0 .021.595h-.066v.004c.15.068.236.102.258.102H.28m-.023.07V.766A3.158 3.158 0 0 1 .12.706.816.816 0 0 0 .042.673a.158.158 0 0 0-.045-.01H-.07v.004c.075.035.134.061.177.078A.39.39 0 0 0 .19.771h.067Z" id="n"/><path d="M.436.176V.16A.346.346 0 0 0 .415.036a.39.39 0 0 0-.061-.107.478.478 0 0 0-.094-.088.609.609 0 0 0-.118-.066.396.396 0 0 0-.09.039 2.74 2.74 0 0 0-.149.088l.022.054a.866.866 0 0 1 .09-.04.214.214 0 0 1 .071-.013c.013 0 .026.001.038.004a.199.199 0 0 1 .04.015 1.053 1.053 0 0 1 .094.06C.327.039.36.088.36.129.36.148.33.191.27.26l.05.155A.3.3 0 0 0 .436.176Z" id="o"/><path d="M.36.732.303.637.197.7l.061.089L.36.732M.624.03H.59a.218.218 0 0 0-.07.01.156.156 0 0 0-.083.064l-.03.044A.383.383 0 0 0 .22.03.285.285 0 0 0 .15.02C.048.02 0 .086 0 .215 0 .276.02.351.061.44L.095.397A.371.371 0 0 1 .071.331.488.488 0 0 1 .058.265c0-.06.04-.09.119-.09.076 0 .143.03.2.09a6.015 6.015 0 0 1-.02.243c.01.029.026.062.048.1a.077.077 0 0 0 .023-.03.095.095 0 0 0 .008-.033A12.587 12.587 0 0 0 .443.376C.443.344.445.315.449.29A.152.152 0 0 1 .473.226a.11.11 0 0 1 .05-.039A.232.232 0 0 1 .61.174h.015V.029Z" id="p"/><path d="M.454.183a2.272 2.272 0 0 1-.02-.068.34.34 0 0 0-.011-.03.065.065 0 0 0-.012-.02A3.494 3.494 0 0 0 .217.039 1.736 1.736 0 0 0 .02.03h-.036v.145h.07a.138.138 0 0 0-.02.067c0 .01.002.02.005.031A.33.33 0 0 0 .07.336L.094.37A.15.15 0 0 0 .15.418a.15.15 0 0 0 .064.014.179.179 0 0 0 .05-.007.245.245 0 0 0 .09-.049A.292.292 0 0 0 .392.34L.384.274a.398.398 0 0 1-.065.028A.198.198 0 0 1 .166.29.103.103 0 0 1 .14.27C.134.264.13.259.13.255.13.248.135.242.14.236A.103.103 0 0 1 .166.22a.438.438 0 0 1 .23-.031.245.245 0 0 1 .045.005L.454.183Z" id="q"/><path d="m.217.121-.05-.09L.05.1l.047.09.12-.07M.198.74A27.844 27.844 0 0 1 .164.249.305.305 0 0 0 .11.23C.1.271.093.326.087.396.08.466.077.551.073.651l.125.09Z" id="r"/><path d="M1.043.679.983.586.88.648l.059.093.104-.062m.11-.398a.227.227 0 0 0-.022-.097.388.388 0 0 0-.065-.095C1.026.05.924.02.758 0a2.543 2.543 0 0 0-.291-.02c-.042 0-.084.002-.125.006a.812.812 0 0 0-.116.017.51.51 0 0 0-.1.034.257.257 0 0 0-.076.052.187.187 0 0 0-.036.066.26.26 0 0 0-.002.16C.02.34.032.363.05.384L.095.37A.328.328 0 0 1 .063.26.07.07 0 0 1 .08.218.146.146 0 0 1 .126.182a.338.338 0 0 1 .07-.025A1.413 1.413 0 0 1 .494.13a2.466 2.466 0 0 1 .4.032c.034.006.06.012.08.018a.138.138 0 0 0-.02-.002.086.086 0 0 0-.042.01.076.076 0 0 0-.027.025.112.112 0 0 0-.016.037.203.203 0 0 0-.005.045.403.403 0 0 0 .04.16C.915.472.923.487.933.5a.14.14 0 0 0 .03.028.06.06 0 0 0 .034.011.073.073 0 0 0 .04-.012.169.169 0 0 0 .036-.033.43.43 0 0 0 .076-.155.214.214 0 0 0 .006-.047V.281M1.02.295h.017A.06.06 0 0 1 1.054.3a.104.104 0 0 1-.014.03.146.146 0 0 1-.02.027.1.1 0 0 1-.025.02.054.054 0 0 1-.025.006A.034.034 0 0 1 .943.37C.936.362.932.347.93.327h.002a4.374 4.374 0 0 0 .063-.03.05.05 0 0 1 .019-.005c.003 0 .005.001.006.003Z" id="s"/><path d="M.234.69A.58.58 0 0 1 .12.64 1.915 1.915 0 0 0 .04.604.044.044 0 0 0 .027.6C.013.6-.005.612-.028.637a2.214 2.214 0 0 1-.044.059h.042c.005 0 .01-.002.018-.006A.221.221 0 0 0 .026.664a.033.033 0 0 1 .01-.006c.018 0 .027.007.027.022C.063.706.05.728.02.747h.045C.078.747.09.738.102.72A.29.29 0 0 1 .115.7L.124.695C.14.694.149.702.149.72a.05.05 0 0 1-.008.028.067.067 0 0 1-.027.022v.002a.343.343 0 0 1 .04.002c.02 0 .035-.01.048-.032A.2.2 0 0 1 .234.694V.69Z" id="t"/><path d="M.524.03H.47a.439.439 0 0 0-.099.023.25.25 0 0 0-.027-.11.098.098 0 0 0-.018-.024.649.649 0 0 0-.076-.072 1.222 1.222 0 0 0-.081-.06C.158-.22.15-.224.146-.224a.154.154 0 0 0-.07.016.315.315 0 0 0-.064.043.517.517 0 0 0-.059.059 1.042 1.042 0 0 0-.05.064l.043.03a.43.43 0 0 1 .067-.071.093.093 0 0 1 .057-.022c.01 0 .02.001.03.005.01.003.02.009.032.016A1.975 1.975 0 0 1 .289.04c.017.016.026.028.026.033 0 .004-.002.01-.006.018a.443.443 0 0 1-.034.058 1.604 1.604 0 0 0-.034.056.042.042 0 0 0-.006.015.38.38 0 0 0 .014.057L.274.35A8.23 8.23 0 0 1 .349.236.207.207 0 0 1 .381.201.093.093 0 0 1 .412.183a.158.158 0 0 1 .04-.007L.51.174h.014V.029Z" id="u"/><path d="M.483.03H.45a.533.533 0 0 0-.131.013.186.186 0 0 0-.081.039.323.323 0 0 0-.112-.046A.333.333 0 0 0 .073.03h-.088v.144H0a.66.66 0 0 1 .134.01c.032.007.053.017.064.03a.064.064 0 0 1-.03.023.102.102 0 0 1-.037.007.313.313 0 0 1-.07-.012.068.068 0 0 0 0 .013.587.587 0 0 0 .03.14.12.12 0 0 0 .014.031.54.54 0 0 0 .1.01.383.383 0 0 0 .063-.005.185.185 0 0 0 .057-.019.101.101 0 0 0 .057-.095.145.145 0 0 0-.016-.064.17.17 0 0 0-.044-.055.048.048 0 0 1 .02-.007A1.149 1.149 0 0 1 .469.173h.014V.03Z" id="v"/><path d="M.367.157V.16a.045.045 0 0 1-.004.018.232.232 0 0 1-.049.063.13.13 0 0 1-.018.014A.032.032 0 0 1 .28.26.283.283 0 0 1 .222.215.594.594 0 0 1 .366.15l.001.007m.24-.128H.573A.17.17 0 0 0 .5.048a.218.218 0 0 0-.07.056.15.15 0 0 0-.01-.038A.071.071 0 0 0 .405.04a.055.055 0 0 0-.02-.013.076.076 0 0 0-.026-.005.162.162 0 0 0-.055.011.74.74 0 0 0-.06.025l-.06.028a.317.317 0 0 1-.052.02.37.37 0 0 0-.068-.058C.044.035.03.029.02.029h-.035v.145H0a.29.29 0 0 1 .053.004.084.084 0 0 1 .031.011 4.902 4.902 0 0 1 .093.107.669.669 0 0 0 .074.07.059.059 0 0 0 .032.012.053.053 0 0 0 .027-.01A1.155 1.155 0 0 0 .453.233.23.23 0 0 1 .467.217.184.184 0 0 1 .525.185a.205.205 0 0 1 .068-.01L.607.173V.029Z" id="w"/><path d="M.152.381c-.005 0-.01 0-.013.002A9.38 9.38 0 0 0 .166.2L.164.16A.238.238 0 0 0 .16.12.15.15 0 0 0 .146.087a.087.087 0 0 0-.024-.03.12.12 0 0 0-.04-.02A.216.216 0 0 0 .02.03h-.036v.145H.02L.05.17A.167.167 0 0 1 .08.167l.012.001.01.005A.602.602 0 0 0 .087.28 3.141 3.141 0 0 1 .072.4a.226.226 0 0 0-.053.055.097.097 0 0 0-.012.08L.02.57a.61.61 0 0 0 .037.077L.103.63a.591.591 0 0 1-.02-.039.065.065 0 0 1-.006-.023c0-.005.01-.014.03-.025A.805.805 0 0 1 .186.509L.152.381Z" id="x"/><path d="M.13.158a.119.119 0 0 1 .064.045.127.127 0 0 1 .018.107.114.114 0 0 1-.015.03L.13.159M.106.016a.062.062 0 0 1 0-.007c0-.014.002-.025.009-.035A.077.077 0 0 1 .138-.05.106.106 0 0 1 .17-.064a.152.152 0 0 1 .052-.004.144.144 0 0 1 .032.006.028.028 0 0 1 .01.006.112.112 0 0 1-.03.028.306.306 0 0 1-.128.044M.425.03H.318a.126.126 0 0 0 .009-.046.13.13 0 0 0-.014-.058.16.16 0 0 0-.036-.049.177.177 0 0 0-.052-.032.156.156 0 0 0-.06-.012.098.098 0 0 0-.051.014.132.132 0 0 0-.04.035.186.186 0 0 0-.033.105.15.15 0 0 0-.011-.002.032.032 0 0 1-.008-.002V.03h-.037v.145h.082A.57.57 0 0 1 .16.417c.005.03.007.06.007.089v.023L.224.515a.37.37 0 0 0 .06-.209.379.379 0 0 0-.024-.13.612.612 0 0 1 .02-.002h.146V.029Z" id="y"/><path d="M.197.26V.257a.554.554 0 0 0-.032-.16.19.19 0 0 0-.02-.04A.393.393 0 0 0 .02.03h-.035v.144h.046a.714.714 0 0 1 .06.004.035.035 0 0 1 .016.01c.004.004.006.01.006.016C.113.214.108.23.1.247a.739.739 0 0 1-.041.07c.003.042.019.08.047.115A.119.119 0 0 0 .14.404a.256.256 0 0 0 .05-.09A.153.153 0 0 0 .197.26m-.04-.39-.055-.1-.104.063.057.092.104-.056Z" id="z"/><path d="M.272.58.21.488.115.54.083.488l-.104.057.06.094.092-.055.036.055.105-.06M.157.143a.15.15 0 0 1 .04.005c.01.003.019.008.025.015a.048.048 0 0 1-.01.016.292.292 0 0 1-.083.054A.05.05 0 0 1 .076.22a.1.1 0 0 1-.02-.052C.06.16.07.153.082.148a.179.179 0 0 1 .05-.005h.025M.28.191C.28.13.267.087.242.063v.001C.216.04.172.028.113.028a.104.104 0 0 0-.039.008.132.132 0 0 0-.036.022.115.115 0 0 0-.028.034.09.09 0 0 0-.01.043c0 .035.012.081.036.14.03.072.061.108.093.108S.195.36.232.314A.203.203 0 0 0 .28.191Z" id="A"/><path d="M.41.172A.182.182 0 0 0 .393.088.104.104 0 0 0 .348.043.19.19 0 0 0 .277.025a1.226 1.226 0 0 0-.164 0 .167.167 0 0 0-.059.014.087.087 0 0 0-.04.036A.143.143 0 0 0 0 .146C0 .16.002.177.007.198c.005.02.012.044.022.07l.05-.001A.874.874 0 0 1 .064.199.074.074 0 0 1 .09.184.384.384 0 0 1 .219.167a.671.671 0 0 1 .106.01.299.299 0 0 1-.063.109.21.21 0 0 1-.048.04.108.108 0 0 1-.056.016.097.097 0 0 1-.044-.01C.11.332.107.337.105.345a.117.117 0 0 0-.002.028.206.206 0 0 0 .015.078.034.034 0 0 0 .012.013.11.11 0 0 0 .044.01.128.128 0 0 0 .053-.012.213.213 0 0 0 .05-.033.424.424 0 0 0 .115-.183A.412.412 0 0 0 .41.171Z" id="B"/><path d="M.303.03H.268c-.05 0-.09.011-.12.035a.147.147 0 0 0-.051.107 5.575 5.575 0 0 0-.005.095 1.58 1.58 0 0 1-.02.176.584.584 0 0 1-.023.086l.055.106a.992.992 0 0 0 .04-.187A2.774 2.774 0 0 0 .155.28C.156.244.167.217.19.2a.173.173 0 0 1 .1-.027h.014V.029Z" id="C"/><path d="M.577.637.519.547l-.106.06.06.088.104-.058M.654.502.596.407.501.463.466.407.364.47l.058.093.094-.056.037.055.1-.06M.63.042a.215.215 0 0 0-.09.03.283.283 0 0 0-.037.025.557.557 0 0 0-.18-.044.173.173 0 0 0-.04.004.086.086 0 0 0-.033.014A.982.982 0 0 0 .02.03h-.034v.145H0a1.1 1.1 0 0 1 .186.013.286.286 0 0 1 .109.038c.01.008.02.018.028.03a1.067 1.067 0 0 1 .055.12L.414.342.364.199c.069 0 .11.005.124.017.017.014.036.063.057.147L.588.341A1.7 1.7 0 0 1 .555.195.068.068 0 0 1 .57.185.137.137 0 0 1 .627.169 2.78 2.78 0 0 1 .605.27.3.3 0 0 0 .69.378.49.49 0 0 0 .703.203a.358.358 0 0 0-.03-.104.245.245 0 0 0-.028-.045L.63.042Z" id="D"/><clipPath id="a"><path d="M0 0h842.004v595.5H0Z" fill-rule="evenodd"/></clipPath><clipPath id="b"><path d="M0 0h842.004v595.5H0Z" fill-rule="evenodd"/></clipPath><clipPath id="c"><path d="M0 341.53h842.004v253.5H0Z" fill-rule="evenodd"/></clipPath><clipPath id="d"><path d="M0 .246h842.004V253.5H0Z" fill-rule="evenodd"/></clipPath><clipPath id="e"><path d="M0 0h842.004v595.5H0Z" fill-rule="evenodd"/></clipPath></defs><g clip-path="url(#a)"><path d="M0 0h842.25v595.5H0Z" fill="#fff"/></g><g clip-path="url(#b)"><path d="M0 0h842.25v595.5H0Z" fill="#fff"/></g><g fill-rule="evenodd" clip-path="url(#c)"><path d="m367.018 595.275 474.75-253.747v253.747h-474.75Z" fill="#38823f"/><path d="M.132 595.275V446.384l841.636 148.89H.132Zm841.636-20.838v11.782L.132 438.825V427.18c.516 0 1.04.044 1.564.136l840.072 147.12Z" fill="#5cbc60"/><path d="M408.29 595.275H.132v-35.312l251.473-27.92 156.685 63.232Z" fill="#38823f"/></g><g fill-rule="evenodd" clip-path="url(#d)"><path d="m367.018 0 474.75 253.747V.001h-474.75Z" fill="#38823f"/><path d="M.132 0v148.892L841.768 0H.132Zm841.636 20.84V9.057L.132 156.45v11.644c.516 0 1.04-.044 1.564-.136L841.768 20.84Z" fill="#5cbc60"/><path d="M408.29 0H.132v35.313l251.473 27.92L408.29 0Z" fill="#38823f"/></g><g clip-path="url(#e)"><path d="m175.807 296.95-3.377.872c-2.765.715-5.163.991-7.194.83-2.032-.162-3.845-.61-5.442-1.348a18.473 18.473 0 0 1-4.384-2.829 151.806 151.806 0 0 1-4.021-3.618c-1.006 2.215-2.309 4.344-3.908 6.386a39.046 39.046 0 0 1-5.369 5.606 37.457 37.457 0 0 1-6.327 4.387c-2.238 1.23-4.482 2.135-6.733 2.717-9.776 2.524-16.312-2.596-19.61-15.362-1.577-6.11-1.482-14.04.287-23.793l4.46 3.325a37.86 37.86 0 0 0-.47 3.26 50.43 50.43 0 0 0-.26 3.874 49.8 49.8 0 0 0 .03 3.8c.058 1.22.19 2.232.398 3.035 1.528 5.917 6.2 7.866 14.013 5.848 7.524-1.943 13.388-6.597 17.592-13.96-.802-2.708-1.881-6.022-3.237-9.942a613.636 613.636 0 0 0-4.884-13.531c.153-3.127.845-6.821 2.077-11.084 1.245.57 2.223 1.304 2.935 2.2.712.897 1.257 1.948 1.637 3.153.703 2.323 1.46 4.854 2.27 7.595.811 2.74 1.733 5.71 2.764 8.907.83 3.216 1.769 6.018 2.815 8.406 1.045 2.388 2.383 4.28 4.013 5.678 1.63 1.397 3.634 2.251 6.013 2.563 2.379.312 5.304.019 8.777-.878l1.447-.374 3.688 14.277Zm46.753-2.248-3.297 11.141-11.832-3.58 3.437-10.201 11.692 2.64Zm15.919-25.619a36.425 36.425 0 0 0-4.027.449 47.135 47.135 0 0 0-3.974.846 57.035 57.035 0 0 0-7.857 2.647 98.897 98.897 0 0 0-7.254 3.391 134.69 134.69 0 0 0-6.46 3.573 1162.64 1162.64 0 0 1-5.383 3.165 104.95 104.95 0 0 0-6.235 3.746 141.043 141.043 0 0 1-6.06 3.726 69.503 69.503 0 0 1-6.71 3.405c-2.4 1.066-5.144 1.998-8.231 2.795l-3.376.872-3.688-14.277 1.447-.374a175.13 175.13 0 0 0 11.619-3.721 187.888 187.888 0 0 0 10.347-4.062 146.403 146.403 0 0 0 8.885-4.147c2.711-1.386 5.122-2.712 7.23-3.977-2.357-.626-4.826-.889-7.406-.788a35.825 35.825 0 0 0-13.363 3.143c-1.826.831-3.456 1.758-4.89 2.78-1.434 1.023-2.624 2.127-3.57 3.315-.944 1.187-1.545 2.414-1.801 3.68l-4.749-.059c.367-3.627.922-6.79 1.666-9.486.744-2.696 1.697-4.983 2.859-6.86 1.161-1.878 2.555-3.387 4.181-4.528 1.627-1.14 3.485-1.98 5.575-2.52 2.154-.557 4.56-.835 7.219-.836 2.658 0 5.604.216 8.837.65 3.798.494 7.294.783 10.489.867 3.194.084 6.248.024 9.163-.18 2.914-.204 5.787-.5 8.62-.889 2.832-.388 5.785-.808 8.859-1.259l-1.962 14.913Zm50.131-13.668a1.154 1.154 0 0 1-.032-.224 1.154 1.154 0 0 0-.032-.223c-.216-.836-.662-1.733-1.338-2.69a15 15 0 0 0-2.346-2.61 10.534 10.534 0 0 0-2.835-1.814c-1.002-.427-1.938-.529-2.806-.305a3.04 3.04 0 0 0-1.509.93 5.995 5.995 0 0 0-1.033 1.58 6.696 6.696 0 0 0-.524 1.755c-.088.589-.082 1.076.018 1.462.199.772.655 1.375 1.367 1.808.712.433 1.615.74 2.708.921 1.093.181 2.358.232 3.795.152a33.899 33.899 0 0 0 4.605-.598l-.038-.144Zm16.533 8.232-10.033 2.591c-.418 3.161-1.23 6.295-2.434 9.401a51.02 51.02 0 0 1-4.474 8.874 46.728 46.728 0 0 1-6.108 7.726c-2.293 2.341-4.759 4.316-7.396 5.923-2.247.066-4.758-.126-7.532-.575a115.285 115.285 0 0 1-8.496-1.716 206.588 206.588 0 0 1-8.584-2.26l-7.75-2.217 1.19-5.555c6.5.997 11.771 1.487 15.815 1.472 4.043-.015 6.933-.247 8.67-.696a16.694 16.694 0 0 0 6.204-3.069 29.614 29.614 0 0 0 4.934-4.901 37.654 37.654 0 0 0 3.667-5.527c1.008-1.872 1.813-3.504 2.414-4.894a18.567 18.567 0 0 1-4.955-.16c-1.597-.274-3.05-.79-4.362-1.55-1.31-.758-2.454-1.766-3.43-3.023-.977-1.258-1.694-2.77-2.15-4.539-.324-1.254-.543-2.698-.656-4.332a31.546 31.546 0 0 1 .063-5.033c.156-1.721.44-3.441.854-5.16.414-1.72.977-3.288 1.691-4.707.714-1.42 1.583-2.639 2.606-3.658 1.023-1.018 2.21-1.702 3.56-2.051 1.061-.274 2.145-.228 3.252.138 1.106.366 2.21.955 3.312 1.768a19.74 19.74 0 0 1 3.152 2.942c1 1.148 1.92 2.351 2.759 3.61a29.49 29.49 0 0 1 2.174 3.837c.61 1.3 1.061 2.513 1.352 3.638l.143.555c.046.177.073.35.083.519l6.752-1.744 3.713 14.373Zm3.871-61.3-3.322 10.84-10.876-3.263a218.605 218.605 0 0 1-2.076 6.504l-11.52-3.764 3.337-10.586 10.585 3.131c.354-1.017.743-2.104 1.164-3.26.422-1.154.799-2.22 1.13-3.198l11.578 3.595Zm8.237 33.682.112.434c.35 1.35.626 2.986.83 4.905a56.56 56.56 0 0 1 .312 5.888 55.385 55.385 0 0 1-.282 5.784c-.19 1.85-.507 3.38-.949 4.592-.728.634-1.605 1.255-2.631 1.863a40.103 40.103 0 0 1-3.189 1.699c-1.1.524-2.165.98-3.197 1.366-1.032.386-1.918.675-2.658.866l-3.376.872-3.688-14.277 1.447-.373 3.087-.798a72.852 72.852 0 0 0 3.358-.944c.984-.306 1.795-.653 2.433-1.04.637-.388 1.089-.83 1.355-1.328.266-.497.311-1.084.137-1.759-.266-1.029-1.053-2.317-2.362-3.866-1.309-1.548-3.274-3.545-5.895-5.99-.725-4.134-.137-8.299 1.764-12.494 1.315.312 2.673.956 4.075 1.931a26.11 26.11 0 0 1 3.971 3.425 26.319 26.319 0 0 1 3.271 4.197c.934 1.491 1.584 2.944 1.949 4.36.033.128.054.242.063.343.009.1.03.215.063.344Zm74.968-39.224-2.564-.366a47.19 47.19 0 0 1 .848 8.064 44.886 44.886 0 0 1-.577 8.124c1.459 2.196 2.686 4.391 3.682 6.587.996 2.195 1.755 4.306 2.279 6.331.515 1.994.779 3.88.793 5.661.014 1.78-.242 3.38-.766 4.803a9.032 9.032 0 0 1-2.479 3.65c-1.128 1.011-2.576 1.746-4.345 2.202-2.25.582-4.43 1.076-6.537 1.483-2.107.407-4.04.495-5.797.263-1.758-.232-3.278-.903-4.56-2.013-1.28-1.11-2.237-2.886-2.868-5.33-.806-3.12-1.105-6.866-.897-11.242l4.1-1.059.517 4.394c.221.458 1.098.797 2.63 1.019a23.146 23.146 0 0 0 3.727-4.796c1.06-1.8 2.005-3.888 2.832-6.262-.617-.664-1.534-1.49-2.75-2.48a159.4 159.4 0 0 0-4.096-3.212 120.878 120.878 0 0 0-4.836-3.485 161.582 161.582 0 0 0-4.931-3.254 66.1 66.1 0 0 0-4.394-2.57c-1.35-.714-2.43-1.173-3.237-1.376a88.793 88.793 0 0 0 .5 3.73c-.344.26-.635.627-.873 1.1a10.841 10.841 0 0 0-.64 1.606c-1.832-1.516-3.686-3.25-5.562-5.2-1.876-1.951-3.778-4.136-5.706-6.553a43.13 43.13 0 0 1 .019-6.102 36.53 36.53 0 0 1 .951-5.88c1.943.219 4.029.692 6.258 1.42 2.229.727 4.5 1.65 6.812 2.768a87.185 87.185 0 0 1 6.97 3.782 95.432 95.432 0 0 1 6.729 4.436 84.458 84.458 0 0 1 6.048 4.792c1.882 1.64 3.542 3.253 4.98 4.837a37.738 37.738 0 0 0-.024-4.573 23.174 23.174 0 0 0-.685-4.145 19.263 19.263 0 0 0-.495-1.622 77.384 77.384 0 0 0-.605-1.644l-.073-.084.085.132c-.93-.412-1.78-.818-2.553-1.219a11.04 11.04 0 0 1-2.046-1.349 7.21 7.21 0 0 1-1.512-1.77c-.416-.682-.749-1.505-.998-2.47-.15-.578-.226-1.305-.228-2.179-.003-.874.044-1.82.14-2.84.097-1.02.23-2.066.399-3.139.169-1.072.368-2.127.598-3.164.23-1.037.461-1.997.696-2.881a26.58 26.58 0 0 1 .683-2.235l5.177.721c-1.3 3.595-1.773 6.084-1.416 7.466.25.965 4.319 2.178 12.208 3.639l-1.61 13.484Zm-3.804 31.288a10.046 10.046 0 0 1-.712-1.463c-.164-.438-.32-.843-.469-1.217a14.959 14.959 0 0 0-.491-1.107 6.265 6.265 0 0 0-.795-1.184 31.849 31.849 0 0 1-1.75 4.182 52.426 52.426 0 0 1-2.437 4.308c.483.012 1.033-.018 1.649-.091a13.936 13.936 0 0 0 1.84-.347c.932-.24 1.73-.601 2.395-1.082.665-.48.922-1.147.77-2Zm73.592-18.854-2.627 10.146-13.44-3.63 2.386-10.083 13.681 3.567Zm31.11-8.035-2.627 10.145-13.44-3.629 2.386-10.083 13.681 3.567Zm24.564-15.452.286 1.11c1.562 6.045 1.958 13.489 1.19 22.331l-4.67-.749a59.956 59.956 0 0 0-1.914-14.58 14.83 14.83 0 0 0-.242-.839 14.606 14.606 0 0 1-.243-.838c-.29-.988-.803-2.313-1.54-3.975a277.72 277.72 0 0 0-2.533-5.52c-.95-2.018-1.947-4.119-2.991-6.302a2074.52 2074.52 0 0 1-2.979-6.254 149.681 149.681 0 0 1-2.459-5.436c-.697-1.638-1.162-2.907-1.395-3.807-.614-2.38-.016-6.77 1.795-13.172l3.434 1.943c.202 1.045.392 1.982.572 2.81.18.829.328 1.468.444 1.918.423 1.64 1.182 3.614 2.275 5.921a966.116 966.116 0 0 0 3.623 7.554 249.86 249.86 0 0 1 3.989 8.668 75.86 75.86 0 0 1 3.358 9.217Zm20.958-53.314.113.434c-.585.391-1.883 1.344-3.893 2.858-2.01 1.513-4.668 3.64-7.973 6.38-2.577 2.107-4.83 3.812-6.757 5.116-1.927 1.304-3.405 2.089-4.434 2.354l-6.511 1.682-.16-.421c13.12-10.558 20.789-16.123 23.008-16.696l6.607-1.707Zm-4.096-6.3.173.47c-.754.4-2.114 1.378-4.08 2.932-1.965 1.554-4.608 3.737-7.93 6.55-2.745 2.253-5.027 3.974-6.846 5.164-1.82 1.19-3.243 1.918-4.272 2.184l-6.512 1.682-.112-.434c6.507-5.35 11.689-9.425 15.546-12.222 3.857-2.797 6.348-4.34 7.473-4.631l6.56-1.695Zm32.888 54.225c.099.249.181.502.247.76l.2.77c1.121 4.342 1.446 8.623.976 12.843a39.73 39.73 0 0 1-3.367 12.163c-1.774 3.889-4.116 7.572-7.025 11.05-2.909 3.478-6.225 6.642-9.948 9.49-2.143.073-5.429-.433-9.86-1.518-4.43-1.085-10.081-2.713-16.953-4.883l.752-5.853c3.913.807 7.237 1.329 9.974 1.565 2.737.237 5.182.077 7.336-.48a16.06 16.06 0 0 0 3.62-1.424c1.16-.625 2.329-1.441 3.51-2.45 1.18-1.007 2.399-2.197 3.657-3.568a107.46 107.46 0 0 0 4.113-4.793l.012.049c5.388-7.429 7.558-13.169 6.511-17.22-.465-1.801-4.567-5.27-12.308-10.404l1.042-16.683c9.274 4.431 15.11 11.293 17.51 20.586Zm26.168-65.413-3.07 10.825-12.096-3.41 3.774-10.287 11.392 2.872Zm44.082 62.703-3.376.872c-2.765.715-5.164.991-7.195.83-2.031-.162-3.845-.61-5.441-1.348a18.473 18.473 0 0 1-4.384-2.829 151.825 151.825 0 0 1-4.022-3.618c-1.006 2.215-2.308 4.344-3.907 6.386a39.05 39.05 0 0 1-5.37 5.606 37.456 37.456 0 0 1-6.327 4.387c-2.238 1.23-4.482 2.135-6.733 2.717-9.775 2.525-16.311-2.596-19.609-15.362-1.578-6.11-1.482-14.04.286-23.793l4.46 3.325c-.178.903-.334 1.99-.47 3.26a50.457 50.457 0 0 0-.26 3.874 49.792 49.792 0 0 0 .03 3.8c.058 1.22.19 2.232.399 3.036 1.528 5.916 6.199 7.865 14.013 5.847 7.524-1.943 13.388-6.596 17.592-13.96-.803-2.708-1.882-6.022-3.237-9.942a613.289 613.289 0 0 0-4.884-13.531c.153-3.127.845-6.821 2.076-11.084 1.245.57 2.224 1.304 2.935 2.2.712.897 1.258 1.948 1.638 3.153.703 2.323 1.46 4.854 2.27 7.595.81 2.74 1.732 5.71 2.764 8.907.83 3.216 1.769 6.018 2.814 8.406 1.046 2.388 2.384 4.28 4.014 5.678 1.63 1.397 3.634 2.251 6.012 2.563 2.38.312 5.305.019 8.778-.878l1.447-.374 3.687 14.277Zm39.45-26.345a231.902 231.902 0 0 0-.076 3.493 73.064 73.064 0 0 1-.141 3.638 34.632 34.632 0 0 1-.35 3.229c-.157.984-.39 1.738-.7 2.264a356.458 356.458 0 0 1-9.526 4.159 222.79 222.79 0 0 1-8.944 3.519 177.08 177.08 0 0 1-9.11 3.073 227.599 227.599 0 0 1-10.025 2.821l-3.473.897-3.687-14.277 6.849-1.77.012.05a.154.154 0 0 0 .084-.074c-1.924-2.007-3.153-4.04-3.684-6.097a10.82 10.82 0 0 1-.34-3.206c.049-1.075.205-2.196.47-3.362a33.673 33.673 0 0 1 1.047-3.615c.434-1.244.915-2.569 1.443-3.974 1.1-2.65 2.541-4.704 4.326-6.16 1.785-1.456 3.755-2.462 5.91-3.018a18.242 18.242 0 0 1 5.076-.565c1.744.047 3.476.277 5.195.69a25.934 25.934 0 0 1 5.01 1.768 29.79 29.79 0 0 1 4.508 2.617l.898 6.662c-2.599-.632-4.978-1.012-7.137-1.14a20.16 20.16 0 0 0-6.279.592c-1.865.482-3.505 1.137-4.92 1.966-1.416.828-2.601 1.683-3.557 2.565-.955.881-1.656 1.722-2.1 2.523-.445.801-.614 1.41-.506 1.829.166.643.638 1.173 1.414 1.59.777.416 1.744.741 2.901.974 1.158.232 2.458.385 3.9.459 1.443.073 2.893.076 4.35.008a48.866 48.866 0 0 0 4.275-.383 32.3 32.3 0 0 0 3.728-.706c2.894-.748 5.3-1.455 7.22-2.122 1.92-.668 3.406-1.292 4.457-1.872l1.481.955Z" fill="none" stroke="#fff" stroke-linecap="butt" stroke-linejoin="miter" stroke-miterlimit="4" stroke-width="26.782"/><use xlink:href="#f" fill-opacity="0" data-text="ﺪ" transform="scale(102.02372 -102.02372) rotate(14.482 12.743 2.885)"/><use xlink:href="#g" fill-opacity="0" data-text="ﺟ" transform="scale(102.02372 -102.02372) rotate(14.482 12.438 5.283)"/><use xlink:href="#h" fill-opacity="0" data-text="ﻮ" transform="scale(102.02372 -102.02372) rotate(14.482 12.06 8.263)"/><use xlink:href="#i" fill-opacity="0" data-text="ﺗ" transform="scale(102.02372 -102.02372) rotate(14.482 11.783 10.434)"/><use xlink:href="#j" fill-opacity="0" transform="scale(102.02372 -102.02372) rotate(14.482 11.66 11.404)"/><use xlink:href="#k" fill-opacity="0" data-text="ﻻ" transform="scale(102.02372 -102.02372) rotate(14.482 11.501 12.653)"/><use xlink:href="#j" fill-opacity="0" transform="scale(102.02372 -102.02372) rotate(14.482 11.232 14.77)"/><use xlink:href="#l" fill-opacity="0" data-text="." transform="scale(102.02372 -102.02372) rotate(14.482 11.074 16.02)"/><use xlink:href="#l" fill-opacity="0" data-text="." transform="scale(102.02372 -102.02372) rotate(14.482 10.916 17.259)"/><use xlink:href="#m" fill-opacity="0" data-text="ا" transform="scale(102.02372 -102.02372) rotate(14.482 10.759 18.498)"/><use xlink:href="#n" fill-opacity="0" data-text="" transform="scale(102.02372 -102.02372) rotate(14.482 10.647 19.375)"/><use xlink:href="#o" fill-opacity="0" data-text="ر" transform="scale(102.02372 -102.02372) rotate(14.482 10.647 19.375)"/><use xlink:href="#p" fill-opacity="0" data-text="ﺬ" transform="scale(102.02372 -102.02372) rotate(14.482 10.405 21.284)"/><use xlink:href="#q" fill-opacity="0" data-text="ﻋ" transform="scale(102.02372 -102.02372) rotate(14.482 10.1 23.682)"/><path d="m62.927 463.894-2.628 10.146-13.44-3.63 2.387-10.083 13.68 3.567ZM45.21 403.075c.47 3.412 1.493 9.33 3.069 17.756 1.576 8.425 3.638 19.032 6.186 31.82-1.264 1.08-2.915 2.193-4.952 3.337-1.963-3.884-4.125-9.2-6.486-15.947-2.36-6.748-4.976-15.016-7.847-24.805l10.03-12.16Zm116.161-23.366-3.469 10.672-11.868-3.52 3.469-10.672 11.868 3.52Zm21.09 36.434c.822 3.184.893 6.578.212 10.184-.68 3.606-1.997 7.274-3.95 11.002-2.926 4.872-12.303 10.467-28.13 16.784-4.136 1.652-8.618 3.29-13.446 4.914a236.96 236.96 0 0 1-14.851 4.453 152.908 152.908 0 0 1-12.43 2.67c-4.14.71-8.117 1.11-11.935 1.205-3.817.094-7.391-.166-10.723-.78-3.332-.615-6.276-1.69-8.833-3.224-1.992-1.338-3.757-3.189-5.293-5.553-1.537-2.364-2.68-4.994-3.427-7.888a26.38 26.38 0 0 1-.804-7.895c.128-2.692.774-5.303 1.938-7.833l4.774.156c-.787 5.452-.89 9.303-.309 11.554.432 1.672 1.36 3.01 2.786 4.014 1.426 1.003 3.23 1.747 5.413 2.229 2.182.482 4.687.719 7.515.709 2.827-.01 5.868-.221 9.123-.633a143.92 143.92 0 0 0 10.239-1.693c3.57-.716 7.173-1.544 10.807-2.482a251.564 251.564 0 0 0 14.43-4.19 282.292 282.292 0 0 0 13.309-4.647c4.108-1.559 7.767-3.061 10.978-4.508 3.21-1.447 5.686-2.72 7.425-3.822l-.048.013c-.65.27-1.281.485-1.892.643-1.608.415-3.053.463-4.337.142a7.752 7.752 0 0 1-3.366-1.78c-.962-.866-1.784-1.957-2.466-3.273-.683-1.316-1.232-2.777-1.648-4.385a30.905 30.905 0 0 1-.882-5.51 41.162 41.162 0 0 1-.01-5.81c.135-1.939.406-3.81.815-5.613.409-1.804.942-3.425 1.6-4.864.657-1.439 1.424-2.65 2.303-3.63.878-.982 1.864-1.614 2.957-1.896 1.319-.341 2.727-.267 4.225.22 1.498.488 3 1.258 4.507 2.31 1.506 1.05 2.982 2.316 4.427 3.795a43.8 43.8 0 0 1 3.951 4.64 36.898 36.898 0 0 1 3.065 4.893c.855 1.649 1.456 3.148 1.805 4.499l.112.434c.033.128.055.277.064.446Zm-13.565 2.063c.547-.14 1.098-.3 1.652-.478a6.205 6.205 0 0 0 1.577-.767 10.658 10.658 0 0 0-2.046-2.842 14.93 14.93 0 0 0-2.724-2.178c-.959-.592-1.933-1.01-2.921-1.252-.989-.242-1.885-.259-2.69-.051-1.028.266-1.8.928-2.316 1.987-.515 1.06-.603 2.643-.265 4.75-.016-.063.04-.112.168-.145.258-.067.778-.012 1.56.163.783.175 1.648.372 2.597.59.948.218 1.872.408 2.771.57.9.162 1.59.181 2.073.056.353-.09.542-.225.564-.403Zm31.11-49.66c-1.708.82-5.003 3.403-9.883 7.75a195.247 195.247 0 0 1-2.844 2.433 152.38 152.38 0 0 1-2.42 1.988 25.567 25.567 0 0 1-1.856 1.38c-.512.338-.881.536-1.106.595-1.415.365-3.548-.388-6.398-2.258a225.767 225.767 0 0 0-5.836-4.667l4.148-1.072c.45-.116 1.071-.07 1.862.137.791.207 1.587.465 2.387.773s1.506.588 2.12.841c.615.253.97.367 1.066.342 1.833-.473 2.559-1.45 2.177-2.929-.648-2.508-2.68-4.332-6.096-5.474l4.485-1.158c1.319-.341 2.79.24 4.412 1.741a29.634 29.634 0 0 0 1.806 1.515c.49.37.816.535.977.494 1.704-.44 2.336-1.513 1.896-3.217a5.166 5.166 0 0 0-1.543-2.586c-.763-.695-1.834-1.19-3.213-1.485l-.014-.254a35.026 35.026 0 0 0 2.013-.571c.506-.165.902-.293 1.187-.384.285-.09.472-.165.56-.222l.132-.086c1.833-.473 3.66.222 5.478 2.084 2.37 2.406 3.855 3.704 4.453 3.893l.05.398Zm45.556 57.848-3.377.872c-.386.1-1.065.224-2.039.372-.973.149-2.074.27-3.302.364-1.227.095-2.473.15-3.738.168-1.264.018-2.364-.058-3.3-.228.914 4.6.948 8.45.102 11.55-.084.605-.46 1.543-1.126 2.813a66.216 66.216 0 0 1-2.456 4.235 95.589 95.589 0 0 1-3.23 4.822 124.65 124.65 0 0 1-3.42 4.588c-1.097 1.398-2.107 2.568-3.03 3.51-.923.941-1.61 1.47-2.06 1.586-2.315.598-4.723.637-7.225.117-2.5-.52-4.996-1.385-7.487-2.594a52.788 52.788 0 0 1-7.32-4.335 106.282 106.282 0 0 1-6.66-5.071l3.533-4.051c3.37 2.56 6.196 4.334 8.475 5.323 2.279.989 4.351 1.243 6.216.761.933-.24 1.852-.667 2.757-1.278.906-.611 1.834-1.4 2.785-2.366a49.688 49.688 0 0 0 3.048-3.437 201.583 201.583 0 0 0 3.548-4.492c2.559-3.37 4.483-6.114 5.771-8.23 1.289-2.117 1.862-3.449 1.721-3.995-.1-.386-.442-.915-1.027-1.587a45.236 45.236 0 0 0-2.126-2.255 100.374 100.374 0 0 0-2.703-2.595c-.97-.899-1.866-1.748-2.69-2.547a52.366 52.366 0 0 1-2.094-2.134c-.573-.624-.893-1.065-.96-1.322l-.024-.096c-.182-1.634-.223-3.587-.124-5.86.099-2.272.31-4.907.633-7.906.625.559 1.393 1.243 2.306 2.054.912.81 1.851 1.657 2.816 2.54.966.882 1.907 1.737 2.824 2.563a620.65 620.65 0 0 1 2.385 2.163c1.524 1.252 2.864 2.158 4.02 2.717a9.502 9.502 0 0 0 3.59.95c1.237.076 2.622-.042 4.154-.352a244.4 244.4 0 0 0 5.699-1.24l1.447-.374 3.688 14.277Zm46.303-11.96-3.425.885c-5.048 1.304-9.475 1.959-13.281 1.964-3.806.006-6.805-.583-8.998-1.766-1.685 1.841-3.344 3.35-4.979 4.527-1.634 1.177-3.27 2.148-4.907 2.914a33.99 33.99 0 0 1-4.969 1.875 190.05 190.05 0 0 1-5.166 1.412l-3.473.897-3.688-14.277 1.495-.387c5.628-1.453 9.936-2.934 12.924-4.444 2.99-1.51 4.84-3.008 5.554-4.496-1.095-.917-2.261-1.448-3.499-1.591-1.237-.144-2.515-.045-3.834.295-1.125.291-2.246.7-3.361 1.229a31.924 31.924 0 0 0-3.224 1.759 6.967 6.967 0 0 1-.235-.609c-.074-.22-.144-.46-.21-.717-.316-1.222-.553-2.704-.712-4.447a59.856 59.856 0 0 1-.246-5.236 43.77 43.77 0 0 1 .245-4.925c.17-1.536.417-2.672.741-3.407a55.12 55.12 0 0 1 4.34-1.919 43.785 43.785 0 0 1 5.177-1.671 39.04 39.04 0 0 1 6.456-1.102c2.181-.186 4.225-.045 6.13.424 1.904.468 3.566 1.325 4.985 2.57 1.42 1.246 2.428 3.027 3.026 5.342.548 2.122.574 4.38.077 6.771a17.408 17.408 0 0 1-2.897 6.614c.316.159 1.013.202 2.092.129 1.078-.073 2.332-.234 3.76-.483 1.427-.248 2.937-.544 4.53-.887 1.592-.342 3.08-.692 4.462-1.05l1.422-.47 3.688 14.277Zm31.572-21.583a1.296 1.296 0 0 0-.052-.398c-.132-.515-.439-1.07-.919-1.667a15.08 15.08 0 0 0-1.754-1.81 23.631 23.631 0 0 0-2.255-1.759 20.352 20.352 0 0 0-2.403-1.437 13.18 13.18 0 0 0-2.212-.895c-.687-.2-1.239-.246-1.657-.138-.193.05-.527.35-1.002.901a28.908 28.908 0 0 0-1.471 1.873 50.265 50.265 0 0 0-1.368 1.974c-.406.62-.649 1.042-.727 1.268 2.043.741 4.416 1.363 7.119 1.866 2.702.502 5.612.814 8.73.935.072-.122.062-.36-.03-.713Zm26.982 6.46-3.376.872c-2.412.622-5.02.653-7.823.09-2.803-.562-5.61-1.835-8.42-3.818.26 1.544.334 2.889.218 4.034-.116 1.144-.399 2.109-.848 2.894a5.562 5.562 0 0 1-1.725 1.886 7.706 7.706 0 0 1-2.402 1.058c-1.64.423-3.532.535-5.676.334a75.418 75.418 0 0 1-6.592-.921 808.133 808.133 0 0 1-6.571-1.236c-2.13-.41-4.02-.625-5.672-.644-1.835 3.252-3.584 5.745-5.246 7.477-1.662 1.733-2.975 2.724-3.94 2.973l-3.376.872-3.688-14.277 1.447-.374c2.123-.548 3.826-1.125 5.11-1.731 1.284-.606 2.217-1.242 2.8-1.907.534-.72 1.13-1.767 1.788-3.137.658-1.37 1.38-2.894 2.164-4.572.784-1.678 1.614-3.41 2.49-5.197a68.234 68.234 0 0 1 2.698-4.993c.923-1.541 1.863-2.848 2.821-3.918.959-1.071 1.904-1.727 2.837-1.968.675-.174 1.67-.037 2.987.412 1.317.449 2.765 1.078 4.346 1.887 1.582.81 3.218 1.699 4.909 2.669 1.69.97 3.25 1.895 4.68 2.778 1.428.883 2.636 1.643 3.624 2.28.987.637 1.578.999 1.772 1.086 2.11.998 4.304 1.59 6.58 1.773 2.278.184 4.59-.028 6.937-.634l1.46-.326 3.687 14.277Zm4.57-38.277a5.556 5.556 0 0 1-1.34.191 958.344 958.344 0 0 1 3.225 7.503c1.223 2.874 2.597 6.138 4.124 9.79.268 1.304.542 2.63.822 3.982a24.29 24.29 0 0 1 .497 4.013 15.223 15.223 0 0 1-.339 3.87c-.276 1.254-.83 2.426-1.664 3.516-.833 1.09-2 2.086-3.499 2.988-1.499.901-3.438 1.66-5.818 2.274l-3.473.897-3.687-14.277 3.472-.897a17.571 17.571 0 0 1 3.114-.495 17.072 17.072 0 0 0 3.017-.47c.45-.117.842-.261 1.175-.433.333-.172.594-.42.785-.743a61.358 61.358 0 0 1-2.256-5.051 175.862 175.862 0 0 1-1.913-5.114 320.392 320.392 0 0 0-1.993-5.428 101.426 101.426 0 0 0-2.5-5.992c-3.015-1.313-5.252-2.673-6.713-4.08-1.461-1.406-2.412-2.961-2.852-4.665a11.423 11.423 0 0 1-.35-3.049 28.1 28.1 0 0 1 .287-3.47c.176-1.245.413-2.584.712-4.016.3-1.433.6-2.96.9-4.58l5.09.383c-.429 1.791-.731 3.241-.908 4.35-.177 1.11-.194 1.937-.053 2.484.133.514 1.357 1.073 3.674 1.675.283.167 3.11.62 8.48 1.36l-.015 13.484Zm28.665 6.797.286 1.109c1.562 6.045 1.958 13.49 1.189 22.331l-4.67-.749a59.955 59.955 0 0 0-1.914-14.58 13.64 13.64 0 0 0-.242-.838 16.01 16.01 0 0 1-.242-.838c-.29-.989-.803-2.314-1.541-3.975a277.661 277.661 0 0 0-2.532-5.52c-.95-2.019-1.947-4.12-2.991-6.302a2052.431 2052.431 0 0 1-2.979-6.254 149.697 149.697 0 0 1-2.459-5.436c-.697-1.638-1.162-2.907-1.395-3.808-.614-2.38-.016-6.77 1.795-13.171l3.434 1.942c.202 1.046.392 1.983.572 2.811.18.828.327 1.468.444 1.918.423 1.64 1.182 3.613 2.275 5.92a965.561 965.561 0 0 0 3.623 7.554 249.934 249.934 0 0 1 3.988 8.669 75.843 75.843 0 0 1 3.359 9.217ZM437 354.052l.286 1.11c1.562 6.045 1.958 13.489 1.19 22.331l-4.67-.749a59.955 59.955 0 0 0-1.914-14.58c-.075-.29-.156-.57-.243-.839a15.468 15.468 0 0 1-.242-.838c-.29-.988-.803-2.313-1.54-3.975a277.822 277.822 0 0 0-2.533-5.52c-.95-2.018-1.947-4.12-2.991-6.302a2057.114 2057.114 0 0 1-2.979-6.254 149.73 149.73 0 0 1-2.459-5.436c-.697-1.638-1.162-2.907-1.395-3.807-.614-2.38-.016-6.77 1.795-13.172l3.434 1.943c.202 1.045.392 1.982.572 2.81.18.829.327 1.468.444 1.918.423 1.64 1.182 3.614 2.275 5.921a965.927 965.927 0 0 0 3.623 7.554 249.971 249.971 0 0 1 3.989 8.668 75.853 75.853 0 0 1 3.358 9.217Zm27.975-58.42-3.07 10.826-12.096-3.41 3.774-10.287 11.392 2.872Zm44.082 62.704-3.376.872c-2.766.715-5.164.991-7.195.83-2.031-.162-3.845-.61-5.442-1.347a18.474 18.474 0 0 1-4.383-2.83 151.804 151.804 0 0 1-4.022-3.617c-1.006 2.214-2.308 4.343-3.907 6.385a39.044 39.044 0 0 1-5.37 5.606 37.456 37.456 0 0 1-6.327 4.387c-2.238 1.23-4.482 2.135-6.733 2.717-9.775 2.525-16.312-2.596-19.609-15.362-1.578-6.11-1.482-14.04.286-23.792l4.46 3.324a37.86 37.86 0 0 0-.47 3.26 50.437 50.437 0 0 0-.26 3.874 49.794 49.794 0 0 0 .03 3.8c.058 1.22.19 2.232.398 3.036 1.529 5.916 6.2 7.865 14.013 5.847 7.525-1.943 13.389-6.596 17.593-13.96-.803-2.708-1.882-6.022-3.237-9.942a613.631 613.631 0 0 0-4.884-13.53c.153-3.127.845-6.822 2.076-11.085 1.245.57 2.223 1.304 2.935 2.2.712.897 1.258 1.948 1.638 3.154.703 2.322 1.46 4.853 2.27 7.594.81 2.74 1.732 5.71 2.764 8.907.83 3.216 1.768 6.018 2.814 8.406 1.046 2.388 2.383 4.28 4.013 5.678 1.63 1.397 3.635 2.251 6.013 2.563 2.379.312 5.305.019 8.777-.878l1.447-.374 3.688 14.277Zm8.093-15.673a12.114 12.114 0 0 0 3.193-2.677 11.51 11.51 0 0 0 1.997-3.423c.454-1.232.714-2.517.78-3.854a12.909 12.909 0 0 0-.387-3.888 12.122 12.122 0 0 0-1.342-3.203 11.639 11.639 0 0 0-2.244-2.714l-1.997 19.759Zm1.31 14.634c.01.169.023.32.04.453.017.132.034.23.05.295.341 1.319.934 2.383 1.778 3.194a7.882 7.882 0 0 0 2.931 1.79c1.111.382 2.309.57 3.593.564a15.458 15.458 0 0 0 3.809-.495c.418-.108.896-.249 1.434-.422a14.704 14.704 0 0 0 1.59-.616c.522-.238.995-.497 1.42-.779.425-.28.732-.583.923-.907-.933-.822-2.156-1.51-3.67-2.062a23.882 23.882 0 0 0-4.759-1.19 31.231 31.231 0 0 0-4.896-.33c-1.606.021-2.989.18-4.146.48l-.097.025Zm31.209-9.45-10.612 2.74-.048.013c.032-.008.052.004.06.036.49.697.896 1.407 1.22 2.129.323.722.58 1.453.772 2.193.523 2.026.569 4.063.138 6.113a16.313 16.313 0 0 1-2.366 5.679 18.08 18.08 0 0 1-4.285 4.528 15.885 15.885 0 0 1-5.603 2.708c-1.865.481-3.67.467-5.413-.043a13.419 13.419 0 0 1-4.768-2.524c-1.435-1.173-2.669-2.595-3.7-4.267a19.016 19.016 0 0 1-2.259-5.256c-.36.196-.726.376-1.095.54-.37.164-.61.295-.722.392l-1.208-4.678-3.618.934-3.688-14.277 8.104-2.093a58.07 58.07 0 0 0 2.188-8.36c.537-2.9.863-5.857.976-8.87.114-3.014.015-6.05-.294-9.108a60.036 60.036 0 0 0-1.599-8.977l-.299-1.158a14.49 14.49 0 0 0-.347-1.145l6.101-.084a37.799 37.799 0 0 1 7.04 8.832 41.033 41.033 0 0 1 4.225 10.28c.581 2.25.957 4.503 1.128 6.757.17 2.254.115 4.498-.165 6.732a62.317 62.317 0 0 0 2.124-.343l14.325-3.7 3.688 14.277Zm12.133-27.522.112.434c.349 1.35.625 2.986.83 4.905.204 1.92.308 3.882.311 5.888a55.372 55.372 0 0 1-.28 5.784c-.192 1.85-.508 3.38-.95 4.593-.728.634-1.605 1.255-2.631 1.863a40.102 40.102 0 0 1-3.19 1.698c-1.099.524-2.164.98-3.196 1.366a26.957 26.957 0 0 1-2.658.866l-3.376.873-3.688-14.277 1.447-.374 3.087-.798a72.838 72.838 0 0 0 3.358-.944c.984-.306 1.795-.652 2.432-1.04.638-.387 1.09-.83 1.355-1.327.266-.498.312-1.084.138-1.76-.266-1.029-1.053-2.317-2.362-3.866-1.31-1.548-3.274-3.545-5.895-5.99-.725-4.134-.137-8.299 1.763-12.494 1.316.312 2.674.956 4.075 1.932a26.112 26.112 0 0 1 3.972 3.424 26.316 26.316 0 0 1 3.27 4.198c.935 1.49 1.584 2.944 1.95 4.358.033.129.054.244.063.344.009.1.03.216.063.344Zm6.072 39.644-3.127 11.2-11.832-3.58 3.288-10.574 11.671 2.954Zm48.894-87.387-3.821 10.505-10.666-2.647-1.863 5.935-11.78-2.978 3.638-10.818 10.427 3.121 2.162-6.372 11.903 3.254Zm-.21 46c1.543-.399 2.798-.886 3.764-1.461.966-.575 1.68-1.3 2.14-2.173-.294-.473-.754-.929-1.382-1.367a12.615 12.615 0 0 0-2.16-1.192 29.743 29.743 0 0 0-5.148-1.705 15.22 15.22 0 0 0-2.25-.345c-.681-.047-1.199-.025-1.553.066-1.64.424-2.8 1.307-3.483 2.65-.682 1.342-.901 3.216-.657 5.623.715.775 1.765 1.19 3.151 1.244 1.386.053 3.092-.181 5.118-.705l2.46-.635Zm10.873-7.902c1.586 6.142 1.436 10.674-.45 13.596l-.025-.096c-1.982 3.084-5.915 5.386-11.8 6.906-1.253.324-2.608.391-4.063.201-1.456-.19-2.85-.61-4.185-1.26a11.735 11.735 0 0 1-3.542-2.66c-1.028-1.125-1.741-2.458-2.14-4.002-.88-3.408-.878-8.314.006-14.716 1.147-7.911 3.28-12.27 6.399-13.075 3.151-.814 7.145.572 11.982 4.16 4.174 3.278 6.78 6.926 7.818 10.946Zm45.837-9.781c.89 3.577 1.051 6.494.485 8.75-.566 2.256-1.69 4.115-3.37 5.578-1.68 1.463-3.86 2.652-6.539 3.567-2.68.915-5.707 1.808-9.083 2.68a100.51 100.51 0 0 1-7.129 1.584c-2.244.409-4.294.44-6.149.097-1.855-.344-3.471-1.222-4.848-2.633-1.376-1.41-2.45-3.612-3.223-6.602-.357-1.383-.564-3.147-.62-5.293-.058-2.147.06-4.647.352-7.5l5.005-1.139c-.016 2.062.004 3.67.062 4.82.057 1.152.131 1.905.223 2.258.72.397 1.67.658 2.851.782 1.181.123 2.48.14 3.897.048a39.228 39.228 0 0 0 4.509-.573 67.46 67.46 0 0 0 4.746-1.046 68.495 68.495 0 0 0 5.726-1.736c1.791-.634 3.32-1.286 4.588-1.957-.963-1.603-2.23-3.223-3.802-4.858a30.478 30.478 0 0 0-5.15-4.303c-1.862-1.234-3.805-2.148-5.827-2.74-2.023-.592-3.998-.64-5.928-.141-1.479.382-2.834 1.11-4.067 2.182-.444-.125-.864-.557-1.26-1.295-.397-.738-.728-1.621-.994-2.65a20.962 20.962 0 0 1-.51-2.775 23.059 23.059 0 0 1-.168-2.838c.005-.91.094-1.73.265-2.461.172-.73.433-1.278.785-1.643a11.207 11.207 0 0 1 4.104-2.038c1.769-.457 3.623-.516 5.563-.176 1.94.339 3.892.992 5.857 1.96 1.965.967 3.916 2.213 5.853 3.736a43.293 43.293 0 0 1 5.471 5.147 48.22 48.22 0 0 1 4.725 6.24 41.99 41.99 0 0 1 3.6 6.968Zm38.365 5.114-3.473.897c-4.952 1.28-9.202 1.125-12.75-.462-3.549-1.588-6.143-4.69-7.782-9.31a568.568 568.568 0 0 1-2.886-9.184 161.146 161.146 0 0 0-2.907-8.665 96.859 96.859 0 0 0-3.466-8.237 59.55 59.55 0 0 0-4.562-7.903l2.747-11.875c.953 1.298 1.93 2.89 2.931 4.774a101.205 101.205 0 0 1 2.96 6.079 137.14 137.14 0 0 1 2.776 6.666c.88 2.277 1.688 4.443 2.425 6.5a169.63 169.63 0 0 1 1.916 5.627c.541 1.696.936 3.026 1.185 3.99.947 3.666 2.7 6.035 5.257 7.106 2.558 1.072 6.056 1.103 10.495.094l1.447-.374 3.687 14.277Zm8.094-15.673a12.115 12.115 0 0 0 3.193-2.677 11.51 11.51 0 0 0 1.997-3.423c.454-1.232.714-2.517.78-3.855a12.908 12.908 0 0 0-.387-3.887 12.122 12.122 0 0 0-1.342-3.204 11.642 11.642 0 0 0-2.244-2.713l-1.997 19.759Zm1.31 14.634c.01.169.023.32.04.452.017.133.034.232.05.296.34 1.318.933 2.383 1.777 3.194a7.883 7.883 0 0 0 2.932 1.79c1.11.382 2.308.57 3.593.564a15.458 15.458 0 0 0 3.808-.495 26.31 26.31 0 0 0 1.435-.422 14.706 14.706 0 0 0 1.59-.617c.522-.237.995-.497 1.42-.778.424-.281.732-.584.923-.907-.933-.823-2.157-1.51-3.671-2.062a23.885 23.885 0 0 0-4.758-1.19 31.228 31.228 0 0 0-4.896-.33c-1.607.02-2.99.18-4.147.48l-.096.025Zm31.208-9.45-10.611 2.74-.048.013c.032-.008.052.004.06.036.489.697.895 1.406 1.22 2.129.323.722.58 1.453.771 2.193.523 2.026.57 4.063.139 6.113a16.312 16.312 0 0 1-2.367 5.679 18.08 18.08 0 0 1-4.284 4.528 15.885 15.885 0 0 1-5.603 2.708c-1.865.481-3.67.467-5.414-.043a13.42 13.42 0 0 1-4.768-2.524c-1.435-1.173-2.668-2.595-3.7-4.267a19.014 19.014 0 0 1-2.258-5.256 15.29 15.29 0 0 1-1.095.54c-.37.164-.61.295-.722.392l-1.209-4.678-3.617.934-3.688-14.277 8.103-2.093a58.069 58.069 0 0 0 2.189-8.36c.537-2.9.862-5.857.976-8.87a65.73 65.73 0 0 0-.295-9.108 60.028 60.028 0 0 0-1.598-8.977l-.3-1.158a14.39 14.39 0 0 0-.346-1.145l6.1-.084a37.801 37.801 0 0 1 7.041 8.832 41.032 41.032 0 0 1 4.225 10.28 38.64 38.64 0 0 1 1.127 6.757 33.55 33.55 0 0 1-.165 6.731 62.29 62.29 0 0 0 2.124-.342l14.326-3.7 3.687 14.277Zm40.018-74.342-3.387 10.393-12.011-3.277 3.726-10.275 11.672 3.16Zm11.06 11.344-3.263 10.876-10.85-3.166-1.98 6.48-11.7-3.667 3.337-10.586 10.668 3.058 2.258-6.397 11.53 3.402Zm9.36 45.998c-.644.166-1.459.265-2.445.297-.987.032-2.09-.026-3.312-.173a29.033 29.033 0 0 1-3.903-.767 28.829 28.829 0 0 1-4.277-1.52 56.02 56.02 0 0 1-3.22 2.375 56.502 56.502 0 0 1-4.118 2.582 53.944 53.944 0 0 1-4.64 2.356 29.65 29.65 0 0 1-4.735 1.686c-1.414.365-2.77.561-4.067.587-1.296.027-2.462-.17-3.496-.589-1.17.92-2.702 1.89-4.6 2.912a100.23 100.23 0 0 1-5.975 2.958 90.468 90.468 0 0 1-6.136 2.537c-2.004.74-3.682 1.285-5.032 1.634l-3.377.872-3.687-14.277 1.447-.373c7.589-1.96 13.614-3.963 18.077-6.007 4.463-2.045 7.716-4.223 9.76-6.534a12.638 12.638 0 0 0 1.947-3.719 28.231 28.231 0 0 0 1.048-4.31 109 109 0 0 0 .647-4.566c.185-1.54.417-3.032.696-4.476l4.418 2.564-1.247 15.294c6.753-1.744 10.676-3.358 11.767-4.84 1.34-1.855 1.966-7.197 1.881-16.024l4.866 1.11c-.019 1.651.008 3.814.081 6.487.073 2.674.195 5.601.364 8.782.478.254 1.053.457 1.727.608.674.152 1.377.253 2.11.304.734.05 1.447.055 2.14.014.692-.042 1.28-.125 1.762-.25a4.133 4.133 0 0 0-.14-.736c-.248-.964-.748-2.104-1.5-3.42a283.362 283.362 0 0 0-3.11-5.267c1.382-5.674 3.286-9.922 5.713-12.744a49.911 49.911 0 0 1 2.616 5.447 46.92 46.92 0 0 1 2.004 6.068 44.55 44.55 0 0 1 1.046 5.442c.24 1.858.339 3.702.296 5.531a31.088 31.088 0 0 1-.604 5.43 24.97 24.97 0 0 1-1.645 5.184l-1.148 1.531Z" fill="none" stroke="#fff" stroke-linecap="butt" stroke-linejoin="miter" stroke-miterlimit="4" stroke-width="26.782"/><use xlink:href="#r" fill-opacity="0" data-text="!" transform="scale(102.02372 -102.02372) rotate(14.482 18.786 -.64)"/><use xlink:href="#s" fill-opacity="0" data-text="ف" transform="scale(102.02372 -102.02372) rotate(14.482 18.629 .599)"/><use xlink:href="#t" fill-opacity="0" data-text="" transform="scale(102.02372 -102.02372) rotate(14.482 18.027 5.333)"/><use xlink:href="#u" fill-opacity="0" data-text="ﺮ" transform="scale(102.02372 -102.02372) rotate(14.482 18.027 5.333)"/><use xlink:href="#v" fill-opacity="0" data-text="ﻌ" transform="scale(102.02372 -102.02372) rotate(14.482 17.773 7.339)"/><use xlink:href="#w" fill-opacity="0" data-text="ﻤ" transform="scale(102.02372 -102.02372) rotate(14.482 17.538 9.183)"/><use xlink:href="#x" fill-opacity="0" data-text="ﻟ" transform="scale(102.02372 -102.02372) rotate(14.482 17.242 11.516)"/><use xlink:href="#m" fill-opacity="0" data-text="ا" transform="scale(102.02372 -102.02372) rotate(14.482 17.125 12.436)"/><use xlink:href="#j" fill-opacity="0" transform="scale(102.02372 -102.02372) rotate(14.482 17.014 13.313)"/><use xlink:href="#m" fill-opacity="0" data-text="ا" transform="scale(102.02372 -102.02372) rotate(14.482 16.855 14.562)"/><use xlink:href="#p" fill-opacity="0" data-text="ﺬ" transform="scale(102.02372 -102.02372) rotate(14.482 16.744 15.438)"/><use xlink:href="#y" fill-opacity="0" data-text="ﻬ" transform="scale(102.02372 -102.02372) rotate(14.482 16.439 17.836)"/><use xlink:href="#z" fill-opacity="0" data-text="ﺑ" transform="scale(102.02372 -102.02372) rotate(14.482 16.233 19.454)"/><use xlink:href="#j" fill-opacity="0" transform="scale(102.02372 -102.02372) rotate(14.482 16.11 20.424)"/><use xlink:href="#A" fill-opacity="0" data-text="ة" transform="scale(102.02372 -102.02372) rotate(14.482 15.951 21.673)"/><use xlink:href="#B" fill-opacity="0" data-text="د" transform="scale(102.02372 -102.02372) rotate(14.482 15.787 22.966)"/><use xlink:href="#C" fill-opacity="0" data-text="ﺎ" transform="scale(102.02372 -102.02372) rotate(14.482 15.558 24.772)"/><use xlink:href="#y" fill-opacity="0" data-text="ﻬ" transform="scale(102.02372 -102.02372) rotate(14.482 15.413 25.906)"/><use xlink:href="#D" fill-opacity="0" data-text="ﺷ" transform="scale(102.02372 -102.02372) rotate(14.482 15.208 27.524)"/><use xlink:href="#f" fill="#3b3b3c" data-text="ﺪ" transform="scale(102.02372 -102.02372) rotate(14.482 12.743 2.885)"/><use xlink:href="#g" fill="#3b3b3c" data-text="ﺟ" transform="scale(102.02372 -102.02372) rotate(14.482 12.438 5.283)"/><use xlink:href="#h" fill="#3b3b3c" data-text="ﻮ" transform="scale(102.02372 -102.02372) rotate(14.482 12.06 8.263)"/><use xlink:href="#i" fill="#3b3b3c" data-text="ﺗ" transform="scale(102.02372 -102.02372) rotate(14.482 11.783 10.434)"/><use xlink:href="#j" fill="#3b3b3c" transform="scale(102.02372 -102.02372) rotate(14.482 11.66 11.404)"/><use xlink:href="#k" fill="#3b3b3c" data-text="ﻻ" transform="scale(102.02372 -102.02372) rotate(14.482 11.501 12.653)"/><use xlink:href="#j" fill="#3b3b3c" transform="scale(102.02372 -102.02372) rotate(14.482 11.232 14.77)"/><use xlink:href="#l" fill="#3b3b3c" data-text="." transform="scale(102.02372 -102.02372) rotate(14.482 11.074 16.02)"/><use xlink:href="#l" fill="#3b3b3c" data-text="." transform="scale(102.02372 -102.02372) rotate(14.482 10.916 17.259)"/><use xlink:href="#m" fill="#3b3b3c" data-text="ا" transform="scale(102.02372 -102.02372) rotate(14.482 10.759 18.498)"/><use xlink:href="#n" fill="#3b3b3c" data-text="" transform="scale(102.02372 -102.02372) rotate(14.482 10.647 19.375)"/><use xlink:href="#o" fill="#3b3b3c" data-text="ر" transform="scale(102.02372 -102.02372) rotate(14.482 10.647 19.375)"/><use xlink:href="#p" fill="#3b3b3c" data-text="ﺬ" transform="scale(102.02372 -102.02372) rotate(14.482 10.405 21.284)"/><use xlink:href="#q" fill="#3b3b3c" data-text="ﻋ" transform="scale(102.02372 -102.02372) rotate(14.482 10.1 23.682)"/><use xlink:href="#r" fill="#3b3b3c" data-text="!" transform="scale(102.02372 -102.02372) rotate(14.482 18.786 -.64)"/><use xlink:href="#s" fill="#3b3b3c" data-text="ف" transform="scale(102.02372 -102.02372) rotate(14.482 18.629 .599)"/><use xlink:href="#t" fill="#3b3b3c" data-text="" transform="scale(102.02372 -102.02372) rotate(14.482 18.027 5.333)"/><use xlink:href="#u" fill="#3b3b3c" data-text="ﺮ" transform="scale(102.02372 -102.02372) rotate(14.482 18.027 5.333)"/><use xlink:href="#v" fill="#3b3b3c" data-text="ﻌ" transform="scale(102.02372 -102.02372) rotate(14.482 17.773 7.339)"/><use xlink:href="#w" fill="#3b3b3c" data-text="ﻤ" transform="scale(102.02372 -102.02372) rotate(14.482 17.538 9.183)"/><use xlink:href="#x" fill="#3b3b3c" data-text="ﻟ" transform="scale(102.02372 -102.02372) rotate(14.482 17.242 11.516)"/><use xlink:href="#m" fill="#3b3b3c" data-text="ا" transform="scale(102.02372 -102.02372) rotate(14.482 17.125 12.436)"/><use xlink:href="#j" fill="#3b3b3c" transform="scale(102.02372 -102.02372) rotate(14.482 17.014 13.313)"/><use xlink:href="#m" fill="#3b3b3c" data-text="ا" transform="scale(102.02372 -102.02372) rotate(14.482 16.855 14.562)"/><use xlink:href="#p" fill="#3b3b3c" data-text="ﺬ" transform="scale(102.02372 -102.02372) rotate(14.482 16.744 15.438)"/><use xlink:href="#y" fill="#3b3b3c" data-text="ﻬ" transform="scale(102.02372 -102.02372) rotate(14.482 16.439 17.836)"/><use xlink:href="#z" fill="#3b3b3c" data-text="ﺑ" transform="scale(102.02372 -102.02372) rotate(14.482 16.233 19.454)"/><use xlink:href="#j" fill="#3b3b3c" transform="scale(102.02372 -102.02372) rotate(14.482 16.11 20.424)"/><use xlink:href="#A" fill="#3b3b3c" data-text="ة" transform="scale(102.02372 -102.02372) rotate(14.482 15.951 21.673)"/><use xlink:href="#B" fill="#3b3b3c" data-text="د" transform="scale(102.02372 -102.02372) rotate(14.482 15.787 22.966)"/><use xlink:href="#C" fill="#3b3b3c" data-text="ﺎ" transform="scale(102.02372 -102.02372) rotate(14.482 15.558 24.772)"/><use xlink:href="#y" fill="#3b3b3c" data-text="ﻬ" transform="scale(102.02372 -102.02372) rotate(14.482 15.413 25.906)"/><use xlink:href="#D" fill="#3b3b3c" data-text="ﺷ" transform="scale(102.02372 -102.02372) rotate(14.482 15.208 27.524)"/></g></svg>